<?xml version="1.0" encoding="utf-8"?>
<!-- Generator: Adobe Illustrator 15.0.0, SVG Export Plug-In . SVG Version: 6.00 Build 0)  -->
<!DOCTYPE svg PUBLIC "-//W3C//DTD SVG 1.1//EN" "http://www.w3.org/Graphics/SVG/1.1/DTD/svg11.dtd">
<svg version="1.1" id="Layer_1" xmlns="http://www.w3.org/2000/svg" xmlns:xlink="http://www.w3.org/1999/xlink" x="0px" y="0px"
	 width="352px" height="246.889px" viewBox="0 0 352 246.889" enable-background="new 0 0 352 246.889" xml:space="preserve">
<g>
	<g>
		<path d="M176.639,0c-37.794,0-68.544,30.75-68.544,68.546H132.4c0-24.394,19.846-44.238,44.239-44.238
			c24.391,0,44.239,19.846,44.239,44.238h24.306C245.186,30.75,214.434,0,176.639,0z"/>
	</g>
	<path d="M215.365,107.514h29.589V83.459H108.326v24.056h29.588c-17.992,12.366-29.818,33.084-29.818,56.518H132.4
		c0-24.393,19.846-44.239,44.239-44.239c24.391,0,44.239,19.848,44.239,44.239h24.306
		C245.186,140.598,233.357,119.881,215.365,107.514z"/>
	<path fill="#24C0F0" d="M198.424,68.546c0-12.012-9.771-21.785-21.783-21.785c-12.014,0-21.785,9.773-21.785,21.785"/>
	<g enable-background="new    ">
		<path d="M22.634,228.819v7.241c0,0,0.072,11.4-10.325,11.4c-10.396,0-10.325-11.4-10.325-11.4v-31.046c0,0-0.072-11.4,10.325-11.4
			c10.397,0,10.325,11.4,10.325,11.4v7.241h-7.242v-7.241c0,0,0.287-3.872-2.94-3.872c-2.725,0-2.725,3.872-2.725,3.872v31.046
			c0,0,0,3.872,2.725,3.872c3.227,0,2.94-3.872,2.94-3.872v-7.241H22.634z"/>
		<path d="M41.061,223.943h-6.023v22.944h-7.744c0,0,0-52.342,0-52.7h7.744v21.797h6.023v-21.797h7.744v52.7h-7.744V223.943z"/>
		<path d="M68.378,246.887l-4.016-22.228h-2.079v22.228H54.54v-52.7h7.744c9.178,0,13.193,5.306,13.193,15.2
			c0,5.234-1.362,9.967-4.302,11.975l4.948,25.525H68.378z M62.283,201.859v15.631c2.151,0,5.736-0.287,5.736-7.815
			S64.434,201.859,62.283,201.859z"/>
		<path d="M80.423,194.187h7.744v52.7h-7.744V194.187z"/>
		<path d="M103.509,193.614c9.321-0.216,10.827,8.102,10.827,13.981l-7.6,0.717c0-3.514-0.502-7.601-3.083-7.601
			c-2.007,0.072-2.653,2.223-2.653,5.234c0,3.585,3.083,7.601,6.095,11.975c3.585,5.377,7.242,10.611,7.242,16.275
			c0,7.027-2.294,13.265-10.755,13.265c-9.967,0-11.257-7.528-11.257-15.344l7.601-0.717c0,4.374,0.43,8.963,3.657,8.963
			c2.294,0,3.155-2.51,3.155-5.809c0-3.513-3.298-7.743-6.238-12.188c-3.657-5.378-7.098-10.756-7.098-16.42
			C93.399,200.21,96.196,193.757,103.509,193.614z"/>
		<path d="M137.279,194.187v17.566v0.86h0.287l0.358-0.86l6.453-17.566h7.529l-7.099,17.352l8.031,35.349h-7.529l-5.377-22.944
			l-0.215-1.075h-0.215l-0.43,1.075l-1.792,4.302v18.643h-7.744c0-16.491,0-52.7,0-52.7H137.279z"/>
		<path d="M156.422,194.187h7.744v52.7h-7.744V194.187z"/>
		<path d="M182.736,246.887l-4.947-33.126l-0.287-2.223h-0.431v2.223v33.126h-7.17v-52.7h9.464l4.59,24.092l0.357,2.796h0.145
			l0.357-2.796l4.59-24.092h9.465v52.7h-7.171v-33.126v-2.223h-0.431l-0.286,2.223l-4.947,33.126H182.736z"/>
		<path d="M221.739,246.887h-6.095v-52.7h6.095c14.341,0.071,15.416,5.736,15.416,26.386
			C237.155,241.151,236.08,246.816,221.739,246.887z M223.389,239.143c5.449,0,5.808-1.362,5.736-18.642
			c0.071-17.208-0.287-18.571-5.736-18.571V239.143z"/>
	</g>
	<g enable-background="new    ">
		<path d="M242.316,194.187h17.71v7.959h-9.966v13.838h7.17v8.461h-7.17v14.483h9.966v7.959h-17.71V194.187z"/>
	</g>
	<g enable-background="new    ">
		<path d="M273.936,193.614c9.321-0.216,10.827,8.102,10.827,13.981l-7.601,0.717c0-3.514-0.502-7.601-3.083-7.601
			c-2.007,0.072-2.653,2.223-2.653,5.234c0,3.585,3.084,7.601,6.096,11.975c3.584,5.377,7.241,10.611,7.241,16.275
			c0,7.027-2.294,13.265-10.755,13.265c-9.967,0-11.258-7.528-11.258-15.344l7.602-0.717c0,4.374,0.43,8.963,3.656,8.963
			c2.295,0,3.154-2.51,3.154-5.809c0-3.513-3.298-7.743-6.238-12.188c-3.656-5.378-7.098-10.756-7.098-16.42
			C263.826,200.21,266.623,193.757,273.936,193.614z"/>
		<path d="M288.92,194.187h7.744v52.7h-7.744V194.187z"/>
		<path d="M314.803,213.116v-8.102c0,0,0.144-3.872-2.581-3.872s-2.581,3.872-2.581,3.872v31.691c0,0-0.144,3.872,2.581,3.872
			s2.581-3.872,2.581-3.872v-9.536h-3.083v-6.524h10.827v26.242h-4.589l-0.933-2.51c-1.434,1.793-3.584,3.083-6.022,3.083
			c-9.823,0-9.106-11.4-9.106-11.4v-31.046c0,0-0.071-11.4,10.325-11.4c10.397,0,10.325,11.4,10.325,11.4v8.102H314.803z"/>
		<path d="M336.384,219.426l-0.646-2.438h-0.43v2.438v27.462h-7.099v-52.7h6.884l7.527,27.462l0.646,2.438h0.43v-2.438v-27.462
			h7.099v52.7h-6.884L336.384,219.426z"/>
	</g>
</g>
</svg>
