<?xml version="1.0" encoding="utf-8"?>
<!-- Generator: Adobe Illustrator 15.0.0, SVG Export Plug-In . SVG Version: 6.00 Build 0)  -->
<!DOCTYPE svg PUBLIC "-//W3C//DTD SVG 1.1//EN" "http://www.w3.org/Graphics/SVG/1.1/DTD/svg11.dtd">
<svg version="1.1" id="Layer_1" xmlns="http://www.w3.org/2000/svg" xmlns:xlink="http://www.w3.org/1999/xlink" x="0px" y="0px"
	 width="255.879px" height="53.137px" viewBox="0 0 255.879 53.137" enable-background="new 0 0 255.879 53.137"
	 xml:space="preserve">
<g>
	<g>
		<path d="M22.233-0.069C9.974-0.069,0,9.906,0,22.165h7.884c0-7.912,6.438-14.35,14.35-14.35s14.35,6.438,14.35,14.35h7.884
			C44.467,9.906,34.492-0.069,22.233-0.069z"/>
	</g>
	<path d="M34.795,34.805h9.597v-7.803H0.075v7.803h9.598C3.836,38.816,0,45.536,0,53.137h7.884c0-7.911,6.438-14.35,14.35-14.35
		s14.35,6.438,14.35,14.35h7.884C44.467,45.536,40.63,38.816,34.795,34.805z"/>
	<path fill="#24C0F0" d="M29.299,22.165c0-3.896-3.169-7.066-7.065-7.066s-7.066,3.17-7.066,7.066"/>
	<g enable-background="new    ">
		<path d="M79.418,35.045v7.251c0,0,0.072,11.415-10.338,11.415c-10.41,0-10.338-11.415-10.338-11.415V11.21
			c0,0-0.072-11.415,10.338-11.415c10.41,0,10.338,11.415,10.338,11.415v7.251h-7.251V11.21c0,0,0.287-3.877-2.943-3.877
			c-2.729,0-2.729,3.877-2.729,3.877v31.086c0,0,0,3.877,2.729,3.877c3.23,0,2.943-3.877,2.943-3.877v-7.251H79.418z"/>
		<path d="M97.868,30.163h-6.03v22.974h-7.754c0,0,0-52.408,0-52.768h7.754v21.825h6.03V0.369h7.754v52.768h-7.754V30.163z"/>
		<path d="M125.22,53.137l-4.02-22.256h-2.082v22.256h-7.754V0.369h7.754c9.189,0,13.209,5.313,13.209,15.22
			c0,5.241-1.364,9.979-4.308,11.989l4.954,25.559H125.22z M119.118,8.051v15.651c2.154,0,5.743-0.287,5.743-7.826
			C124.861,8.338,121.272,8.051,119.118,8.051z"/>
		<path d="M137.281,0.369h7.754v52.768h-7.754V0.369z"/>
		<path d="M160.397-0.205c9.333-0.216,10.841,8.112,10.841,13.999l-7.61,0.719c0-3.519-0.502-7.61-3.087-7.61
			c-2.01,0.071-2.656,2.226-2.656,5.241c0,3.589,3.087,7.609,6.103,11.989c3.59,5.384,7.251,10.625,7.251,16.297
			c0,7.035-2.298,13.281-10.769,13.281c-9.979,0-11.271-7.538-11.271-15.363l7.609-0.718c0,4.379,0.432,8.974,3.662,8.974
			c2.297,0,3.158-2.513,3.158-5.815c0-3.518-3.303-7.753-6.246-12.204c-3.66-5.385-7.107-10.77-7.107-16.44
			C150.274,6.4,153.075-0.061,160.397-0.205z"/>
		<path d="M194.21,0.369v17.589v0.862h0.287l0.358-0.862l6.462-17.589h7.538l-7.107,17.374l8.041,35.394h-7.539l-5.384-22.974
			l-0.216-1.077h-0.215l-0.432,1.077l-1.794,4.308v18.666h-7.754c0-16.513,0-52.768,0-52.768H194.21z"/>
		<path d="M213.379,0.369h7.754v52.768h-7.754V0.369z"/>
		<path d="M239.726,53.137l-4.954-33.168l-0.287-2.226h-0.431v2.226v33.168h-7.179V0.369h9.477l4.594,24.122l0.359,2.8h0.145
			l0.358-2.8l4.595-24.122h9.477v52.768h-7.18V19.969v-2.226h-0.43l-0.288,2.226l-4.954,33.168H239.726z"/>
	</g>
</g>
</svg>
