<?xml version="1.0" encoding="utf-8"?>
<!-- Generator: Adobe Illustrator 15.0.0, SVG Export Plug-In . SVG Version: 6.00 Build 0)  -->
<!DOCTYPE svg PUBLIC "-//W3C//DTD SVG 1.1//EN" "http://www.w3.org/Graphics/SVG/1.1/DTD/svg11.dtd">
<svg version="1.1" id="Layer_1" xmlns="http://www.w3.org/2000/svg" xmlns:xlink="http://www.w3.org/1999/xlink" x="0px" y="0px"
	 width="292.115px" height="350.114px" viewBox="0 0 292.115 350.114" enable-background="new 0 0 292.115 350.114"
	 xml:space="preserve">
<g>
	<path d="M146.3,0C65.633,0,0,65.636,0,146.31h51.877c0-52.064,42.364-94.425,94.429-94.425s94.432,42.367,94.432,94.425h51.871
		C292.609,65.636,226.973,0,146.3,0z"/>
</g>
<path d="M228.965,229.483h63.149v-51.345H0.495v51.345H63.65C25.242,255.875,0,300.099,0,350.114h51.877
	c0-52.059,42.364-94.426,94.429-94.426s94.432,42.361,94.432,94.426h51.871C292.609,300.099,267.355,255.875,228.965,229.483z"/>
<path fill="#24C0F0" d="M192.799,146.31c0-25.64-20.859-46.5-46.493-46.5c-25.637,0-46.496,20.859-46.496,46.5"/>
</svg>
